<svg xmlns="http://www.w3.org/2000/svg" viewBox="0, 0, 277.25, 934.45" font-family="SauceCodePro Nerd Font, Source Code Pro, Courier" font-size="14"><g fill="#D3D3D3"><rect x="0" y="0" width="277.25" height="934.45" fill="#000000"/><path d="M0,35.5146875 L126.0205078125,35.5146875 Z" stroke="#D3D3D3"/><text x="0" y="33.55" font-weight="bold">update-packages</text><text x="16.8" y="71.55">  Update npm packages. </text><path d="M0,111.5146875 L58.8095703125,111.5146875 Z" stroke="#D3D3D3"/><text x="0" y="109.55" font-weight="bold">Options</text><text x="16.8" y="147.55" font-weight="bold">--args</text><path d="M75.6123046875,149.5146875 L142.8232421875,149.5146875 Z" stroke="#D3D3D3"/><text x="75.61" y="147.55">string[]</text><text x="16.8" y="166.55" font-weight="bold">--configFilePath</text><path d="M159.6259765625,168.5146875 L210.0341796875,168.5146875 Z" stroke="#D3D3D3"/><text x="159.63" y="166.55">string</text><text x="16.8" y="185.55" font-weight="bold">--configFileName</text><path d="M159.6259765625,187.5146875 L210.0341796875,187.5146875 Z" stroke="#D3D3D3"/><text x="159.63" y="185.55">string</text><text x="16.8" y="204.55" font-weight="bold">--dep</text><path d="M67.2109375,206.5146875 L117.619140625,206.5146875 Z" stroke="#D3D3D3"/><text x="67.21" y="204.55">string</text><text x="16.8" y="223.55" font-weight="bold">-e</text><text x="33.61" y="223.55">, </text><text x="50.41" y="223.55" font-weight="bold">--errorLevel</text><path d="M159.6259765625,225.5146875 L210.0341796875,225.5146875 Z" stroke="#D3D3D3"/><text x="159.63" y="223.55">number</text><text x="16.8" y="242.55" font-weight="bold">-f</text><text x="33.61" y="242.55">, </text><text x="50.41" y="242.55" font-weight="bold">--filter</text><path d="M126.0205078125,244.5146875 L176.4287109375,244.5146875 Z" stroke="#D3D3D3"/><text x="126.02" y="242.55">string</text><text x="16.8" y="261.55" font-weight="bold">-g</text><text x="33.61" y="261.55">, </text><text x="50.41" y="261.55" font-weight="bold">--global</text><text x="16.8" y="280.55" font-weight="bold">-t</text><text x="33.61" y="280.55">, </text><text x="50.41" y="280.55" font-weight="bold">--greatest</text><text x="16.8" y="299.55" font-weight="bold">-i</text><text x="33.61" y="299.55">, </text><text x="50.41" y="299.55" font-weight="bold">--interactive</text><text x="16.8" y="318.55" font-weight="bold">-j</text><text x="33.61" y="318.55">, </text><text x="50.41" y="318.55" font-weight="bold">--jsonAll</text><text x="16.8" y="337.55" font-weight="bold">--jsonUpgraded</text><text x="16.8" y="356.55" font-weight="bold">-l</text><text x="33.61" y="356.55">, </text><text x="50.41" y="356.55" font-weight="bold">--loglevel</text><path d="M142.8232421875,358.5146875 L193.2314453125,358.5146875 Z" stroke="#D3D3D3"/><text x="142.82" y="356.55">string</text><text x="16.8" y="375.55" font-weight="bold">-m</text><text x="33.61" y="375.55">, </text><text x="50.41" y="375.55" font-weight="bold">--minimal</text><text x="16.8" y="394.55" font-weight="bold">-n</text><text x="33.61" y="394.55">, </text><text x="50.41" y="394.55" font-weight="bold">--newest</text><text x="16.8" y="413.55" font-weight="bold">--packageData</text><text x="16.8" y="432.55" font-weight="bold">--packageFile</text><path d="M134.421875,434.5146875 L184.830078125,434.5146875 Z" stroke="#D3D3D3"/><text x="134.42" y="432.55">string</text><text x="16.8" y="451.55" font-weight="bold">-p</text><text x="33.61" y="451.55">, </text><text x="50.41" y="451.55" font-weight="bold">--packageManager</text><path d="M193.2314453125,453.5146875 L243.6396484375,453.5146875 Z" stroke="#D3D3D3"/><text x="193.23" y="451.55">string</text><text x="16.8" y="470.55" font-weight="bold">--pre</text><path d="M67.2109375,472.5146875 L117.619140625,472.5146875 Z" stroke="#D3D3D3"/><text x="67.21" y="470.55">number</text><text x="16.8" y="489.55" font-weight="bold">-r</text><text x="33.61" y="489.55">, </text><text x="50.41" y="489.55" font-weight="bold">--registry</text><path d="M142.8232421875,491.5146875 L193.2314453125,491.5146875 Z" stroke="#D3D3D3"/><text x="142.82" y="489.55">string</text><text x="16.8" y="508.55" font-weight="bold">-x</text><text x="33.61" y="508.55">, </text><text x="50.41" y="508.55" font-weight="bold">--reject</text><path d="M126.0205078125,510.5146875 L176.4287109375,510.5146875 Z" stroke="#D3D3D3"/><text x="126.02" y="508.55">string</text><text x="16.8" y="527.55" font-weight="bold">--removeRange</text><text x="16.8" y="546.55" font-weight="bold">--semverLevel</text><text x="16.8" y="565.55" font-weight="bold">-s</text><text x="33.61" y="565.55">, </text><text x="50.41" y="565.55" font-weight="bold">--silent</text><text x="16.8" y="584.55" font-weight="bold">--timeout</text><path d="M100.81640625,586.5146875 L151.224609375,586.5146875 Z" stroke="#D3D3D3"/><text x="100.82" y="584.55">number</text><text x="16.8" y="603.55" font-weight="bold">-y</text><text x="33.61" y="603.55">, </text><text x="50.41" y="603.55" font-weight="bold">--repository</text><path d="M159.6259765625,605.5146875 L226.8369140625,605.5146875 Z" stroke="#D3D3D3"/><text x="159.63" y="603.55">string[]</text><text x="16.8" y="622.55" font-weight="bold">-b</text><text x="33.61" y="622.55">, </text><text x="50.41" y="622.55" font-weight="bold">--basePath</text><path d="M142.8232421875,624.5146875 L193.2314453125,624.5146875 Z" stroke="#D3D3D3"/><text x="142.82" y="622.55">string</text><text x="16.8" y="641.55" font-weight="bold">-c</text><text x="33.61" y="641.55">, </text><text x="50.41" y="641.55" font-weight="bold">--configFile</text><path d="M159.6259765625,643.5146875 L210.0341796875,643.5146875 Z" stroke="#D3D3D3"/><text x="159.63" y="641.55">string</text><text x="16.8" y="660.55" font-weight="bold">--dryRun</text><text x="16.8" y="679.55" font-weight="bold">--branchName</text><path d="M126.0205078125,681.5146875 L176.4287109375,681.5146875 Z" stroke="#D3D3D3"/><text x="126.02" y="679.55">string</text><text x="16.8" y="698.55" font-weight="bold">--stayOnChangedBranch</text><text x="16.8" y="717.55" font-weight="bold">-o</text><text x="33.61" y="717.55">, </text><text x="50.41" y="717.55" font-weight="bold">--token</text><path d="M117.619140625,719.5146875 L168.02734375,719.5146875 Z" stroke="#D3D3D3"/><text x="117.62" y="717.55">string</text><text x="16.8" y="736.55" font-weight="bold">--username</text><path d="M109.2177734375,738.5146875 L159.6259765625,738.5146875 Z" stroke="#D3D3D3"/><text x="109.22" y="736.55">string</text><text x="16.8" y="755.55" font-weight="bold">--password</text><path d="M109.2177734375,757.5146875 L159.6259765625,757.5146875 Z" stroke="#D3D3D3"/><text x="109.22" y="755.55">string</text><text x="16.8" y="774.55" font-weight="bold">--chunkSize</text><path d="M117.619140625,776.5146875 L168.02734375,776.5146875 Z" stroke="#D3D3D3"/><text x="117.62" y="774.55">number</text><text x="16.8" y="793.55" font-weight="bold">--limit</text><path d="M84.013671875,795.5146875 L134.421875,795.5146875 Z" stroke="#D3D3D3"/><text x="84.01" y="793.55">number</text><text x="16.8" y="812.55" font-weight="bold">-d</text><text x="33.61" y="812.55">, </text><text x="50.41" y="812.55" font-weight="bold">--duration</text><path d="M142.8232421875,814.5146875 L193.2314453125,814.5146875 Z" stroke="#D3D3D3"/><text x="142.82" y="812.55">number</text><text x="16.8" y="831.55" font-weight="bold">--skipErring</text><text x="16.8" y="850.55" font-weight="bold">--remote</text><path d="M92.4150390625,852.5146875 L159.6259765625,852.5146875 Z" stroke="#D3D3D3"/><text x="92.42" y="850.55">string[]</text><text x="16.8" y="869.55" font-weight="bold">--commitMessage</text><path d="M151.224609375,871.5146875 L201.6328125,871.5146875 Z" stroke="#D3D3D3"/><text x="151.22" y="869.55">string</text><text x="16.8" y="888.55" font-weight="bold">-v</text><text x="33.61" y="888.55">, </text><text x="50.41" y="888.55" font-weight="bold">--version</text><text x="16.8" y="907.55" font-weight="bold">-h</text><text x="33.61" y="907.55">, </text><text x="50.41" y="907.55" font-weight="bold">--help</text></g></svg>